HIERARCHY
ROOT Hips
{
  OFFSET 3.13124 94.3669 -3.18751
  CHANNELS  6 Xposition Yposition Zposition Zrotation Xrotation Yrotation
  JOINT LeftUpLeg
  {
    OFFSET 8.64259 1.95398 -2.38835
    CHANNELS 3 Zrotation Xrotation Yrotation
    JOINT LeftLeg
    {
      OFFSET 43.7702 0 0
      CHANNELS 3 Zrotation Xrotation Yrotation
      JOINT LeftFoot
      {
        OFFSET 40.6238 0 0
        CHANNELS 3 Zrotation Xrotation Yrotation
        JOINT LeftToeBase
        {
          OFFSET 12.7242 0 0
          CHANNELS 3 Zrotation Xrotation Yrotation
          End Site
          {
            OFFSET 0 0 0
          }
        }
      }
    }
  }
  JOINT RightUpLeg
  {
    OFFSET -8.2249 1.95398 -2.59336
    CHANNELS 3 Zrotation Xrotation Yrotation
    JOINT RightLeg
    {
      OFFSET 43.5653 0 0
      CHANNELS 3 Zrotation Xrotation Yrotation
      JOINT RightFoot
      {
        OFFSET 40.6238 0 0
        CHANNELS 3 Zrotation Xrotation Yrotation
        JOINT RightToeBase
        {
          OFFSET 12.7242 0 0
          CHANNELS 3 Zrotation Xrotation Yrotation
          End Site
          {
            OFFSET 0 0 0
          }
        }
      }
    }
  }
  JOINT Spine
  {
    OFFSET 0.165834 0.87714 6.61349
    CHANNELS 3 Zrotation Xrotation Yrotation
    JOINT Spine1
    {
      OFFSET 7.38962 1.71661e-005 0
      CHANNELS 3 Zrotation Xrotation Yrotation
      JOINT Spine2
      {
        OFFSET 11.9445 1.14441e-005 0
        CHANNELS 3 Zrotation Xrotation Yrotation
        JOINT Spine3
        {
          OFFSET 14.7254 4.19617e-005 0
          CHANNELS 3 Zrotation Xrotation Yrotation
          JOINT Spine4
          {
            OFFSET 10.9679 0 0
            CHANNELS 3 Zrotation Xrotation Yrotation
            JOINT RightShoulder
            {
              OFFSET 2.46616 -1.6653 3.69651
              CHANNELS 3 Zrotation Xrotation Yrotation
              JOINT RightArm
              {
                OFFSET 13.0012 0 0
                CHANNELS 3 Zrotation Xrotation Yrotation
                JOINT RightForeArm
                {
                  OFFSET 28.7848 1.52588e-005 0
                  CHANNELS 3 Zrotation Xrotation Yrotation
                  JOINT RightHand
                  {
                    OFFSET 26.5688 1.52588e-005 0
                    CHANNELS 3 Zrotation Xrotation Yrotation
                    End Site
                    {
                      OFFSET 0 0 0
                    }
                  }
                }
              }
            }
            JOINT LeftShoulder
            {
              OFFSET 2.38034 -1.29275 -3.75231
              CHANNELS 3 Zrotation Xrotation Yrotation
              JOINT LeftArm
              {
                OFFSET 16.3182 6.10352e-005 0
                CHANNELS 3 Zrotation Xrotation Yrotation
                JOINT LeftForeArm
                {
                  OFFSET 27.0901 0 0
                  CHANNELS 3 Zrotation Xrotation Yrotation
                  JOINT LeftHand
                  {
                    OFFSET 24.5451 1.52588e-005 0
                    CHANNELS 3 Zrotation Xrotation Yrotation
                    End Site
                    {
                      OFFSET 0 0 0
                    }
                  }
                }
              }
            }
            JOINT Neck
            {
              OFFSET 5.0226 -0.0266342 0
              CHANNELS 3 Zrotation Xrotation Yrotation
              JOINT Head
              {
                OFFSET 6.69363 2.86102e-005 0
                CHANNELS 3 Zrotation Xrotation Yrotation
                End Site
                {
                  OFFSET 0 0 0
                }
              }
            }
          }
        }
      }
    }
  }
}
MOTION
Frames:	15
Frame Time:	0.0333333
-72.5686 89.0984 -17.0874 60.5625 -72.9812 53.4081 -174.061 19.8144 77.7118 -18.5038 -10.1793 -2.25632 61.9069 4.52339 2.49788 28.7808 7.25165e-006 1.36913e-005 -179.411 19.4151 85.5412 -59.2079 11.4174 0.0727803 53.7875 12.6497 9.01193 28.7808 1.65083e-005 2.62488e-005 0.718668 7.02932 -88.3124 12.8136 2.11482 1.82775 1.1432 2.19318 1.7329 -21.3893 1.46923 2.37869 -1.37667 1.46921 2.37868 94.1629 -45.3486 -95.1791 37.7279 1.71987 11.018 3.60133 1.61885 -77.5154 14.6507 8.98328 55.8084 -108.268 -61.2074 57.1317 -25.016 -11.5256 8.43617 13.1406 6.25859 -60.2351 -4.94419 -1.13632 39.8699 -12.1252 1.28793 17.9287 -47.4802 0.409986 0.830932 
-72.7372 89.2351 -16.7597 61.5705 -71.9052 55.0995 -173.835 19.8347 78.2666 -18.3306 -8.02347 -1.92137 61.5821 4.8426 2.68285 28.7808 7.25165e-006 1.36913e-005 -179.074 21.5982 84.3964 -59.7151 20.0015 0.620829 53.6895 10.4836 7.53097 28.7808 1.65083e-005 2.62488e-005 0.702359 7.0668 -88.4055 12.7413 2.06165 1.64636 1.07104 2.1321 1.55403 -21.4633 1.47156 2.18974 -1.45067 1.47157 2.18974 95.4113 -44.1532 -93.3108 38.3858 0.451441 9.96198 7.71946 2.62181 -78.1461 12.7986 7.74186 54.9109 -108.092 -60.6173 57.12 -25.6136 -10.9878 8.93141 12.5515 5.68564 -60.9335 -5.05386 -1.2114 40.9968 -12.7752 0.847432 17.6594 -46.9842 0.107864 0.725134 
-72.8902 89.4341 -16.4474 62.0207 -70.8122 56.4179 -173.648 19.7964 79.0323 -17.694 -6.92924 -1.8726 61.4233 4.71267 2.60754 28.7808 7.25165e-006 1.36913e-005 -178.886 22.9903 83.0156 -57.6645 24.3218 0.973488 56.2767 8.76597 5.97945 28.7808 1.65083e-005 2.62488e-005 0.696436 7.09136 -88.5882 12.694 2.00455 1.41816 1.02391 2.06499 1.32854 -21.5126 1.48572 1.95498 -1.5 1.48572 1.95497 94.6892 -45.1009 -94.3571 36.5812 2.39077 9.59097 9.8536 2.96383 -79.0679 12.2308 7.36048 54.7198 -107.719 -60.1079 57.3942 -26.143 -10.5316 9.64402 10.8094 4.47153 -61.4467 -4.63387 -1.03023 40.7245 -13.0794 0.458065 17.3905 -46.7674 -0.231028 0.698232 
-73.0817 89.6102 -16.2446 61.9725 -69.7619 57.044 -173.53 19.9481 79.57 -17.024 -5.63055 -1.70108 60.9096 4.88151 2.72109 28.7808 7.25165e-006 1.36913e-005 -178.648 24.7998 81.1133 -55.3354 26.9541 1.22011 56.143 4.79256 3.38134 28.7808 1.65083e-005 2.62488e-005 0.710068 7.10612 -88.7683 12.6661 1.98692 1.19625 0.996182 2.03763 1.10762 -21.5426 1.53558 1.7381 -1.52992 1.53558 1.73809 95.2128 -44.3567 -93.6125 37.0492 1.80452 9.82399 10.6731 3.10736 -79.3129 11.7012 6.45472 50.1148 -107.412 -59.8398 57.6822 -26.7295 -10.0082 9.97157 9.38073 3.54279 -61.7408 -3.75483 -0.691724 42.6385 -13.2947 0.0521547 17.0496 -46.4317 -0.650774 0.797177 
-73.2618 89.7963 -16.0107 61.9433 -68.6825 57.6447 -173.429 19.9744 80.0841 -16.133 -4.61689 -1.64576 60.4453 4.91062 2.75451 28.7808 7.25165e-006 1.36913e-005 -178.618 25.8491 78.8788 -51.4307 24.7092 1.12467 58.0941 2.78781 1.94153 28.7808 1.65083e-005 2.62488e-005 0.736525 7.1107 -88.9773 12.6578 1.97027 0.960224 0.988079 2.01062 0.872573 -21.5527 1.59062 1.50805 -1.54005 1.59059 1.50803 95.4179 -44.5391 -93.2394 36.4794 2.29814 8.95247 11.6425 3.33647 -79.3651 11.3238 6.32694 50.7595 -107.192 -59.6175 57.8777 -27.239 -9.55734 10.7988 6.59277 1.79227 -62.4668 -2.47807 -0.14036 43.4467 -13.5098 -0.348378 16.7981 -46.086 -0.989857 0.705951 
-73.4617 90.0366 -15.6808 62.3661 -67.6509 58.818 -173.287 19.6828 80.7751 -15.0438 -3.4381 -1.56554 59.9095 4.94432 2.79453 28.7808 7.25165e-006 1.36913e-005 -179.032 25.9385 76.9679 -45.7767 22.9238 1.09184 60.0258 1.24777 0.884868 28.7808 1.65083e-005 2.62488e-005 0.781443 7.13217 -89.2361 12.6153 1.953 0.657429 0.945724 1.98004 0.57081 -21.5972 1.66511 1.2141 -1.58455 1.66511 1.2141 96.504 -44.1647 -91.4868 36.9882 1.5151 8.09076 10.9381 3.33121 -78.7365 11.0916 6.07914 49.9328 -107.179 -59.516 57.8542 -27.862 -9.10966 11.8024 4.19946 0.41142 -62.558 -0.64573 0.649604 41.5006 -13.5397 -0.676963 16.7189 -46.0508 -1.19503 0.391807 
-73.6433 90.2822 -15.2443 63.0685 -66.5857 60.2737 -173.11 19.2383 81.4793 -13.9936 -2.05896 -1.42697 59.3713 5.00113 2.84627 28.7808 7.25165e-006 1.36913e-005 -179.909 25.3957 75.3846 -38.8962 21.3497 1.08543 60.7883 0.0895309 0.158189 28.7808 1.65083e-005 2.62488e-005 0.822477 7.16757 -89.4723 12.5446 1.92657 0.382274 0.875099 1.94151 0.297064 -21.6692 1.72269 0.943769 -1.65656 1.72267 0.943751 96.27 -44.7065 -91.8059 36.4122 2.37065 7.96163 9.94911 3.23466 -78.1004 11.5334 6.11203 48.517 -107.018 -59.2119 57.9417 -28.3276 -8.72201 12.9278 3.10494 -0.248148 -63.613 -0.696228 0.659825 43.9897 -13.5612 -1.0196 16.142 -45.9187 -1.48901 0.281182 
-73.9044 90.4924 -14.7845 63.7164 -65.2784 61.5997 -172.907 18.9039 82.1352 -12.8836 -0.667955 -1.40169 58.9424 4.84125 2.76685 28.7808 7.25165e-006 1.36913e-005 178.924 24.7985 74.1886 -31.9088 19.0501 1.01611 60.5037 -1.29234 -0.668247 28.7808 1.65083e-005 2.62488e-005 0.865628 7.18403 -89.7153 12.5115 1.88927 0.0875448 0.841889 1.89129 0.00428105 -21.7033 1.77403 0.651483 -1.69061 1.77403 0.651485 96.1881 -44.9168 -91.9142 36.109 2.82254 7.47424 9.72349 3.39005 -77.2382 10.9384 5.8237 48.532 -107.331 -58.9533 57.4324 -28.74 -8.4619 14.7252 3.12208 -0.276469 -64.7945 -1.72455 0.206579 44.8133 -13.7219 -1.4185 15.8567 -45.788 -1.71256 -0.115398 
-74.2682 90.7086 -14.3432 64.7777 -63.7681 63.2756 -172.67 18.503 82.7863 -11.7424 1.08198 -1.38159 58.314 4.80774 2.77141 28.7808 7.25165e-006 1.36913e-005 177.365 23.5945 73.6733 -24.2944 16.3534 0.928394 59.9273 -1.11495 -0.543094 28.7808 1.65083e-005 2.62488e-005 0.882561 7.20305 -89.9506 12.4725 1.79363 -0.196789 0.802794 1.7832 -0.275571 -21.7421 1.77118 0.351544 -1.72944 1.77118 0.351534 95.9973 -45.1851 -92.1929 35.9684 3.19102 7.43852 8.05179 3.12068 -76.2845 10.6047 5.51825 47.3912 -107.664 -58.5491 56.8376 -29.2917 -8.14848 16.5719 3.60499 -0.0605905 -65.5777 -2.31951 -0.0664464 44.8282 -13.9207 -1.83698 15.3626 -45.6526 -2.02611 -0.320777 
-74.6831 90.9087 -13.9437 65.385 -62.0544 64.2045 -172.602 18.0938 83.1422 -10.0377 1.99271 -1.55881 57.4756 4.45901 2.59166 28.7808 7.25165e-006 1.36913e-005 174.73 21.0589 73.3542 -13.7585 8.64127 0.481692 58.5633 -0.636888 -0.192015 28.7808 1.65083e-005 2.62488e-005 0.894536 7.20845 -90.177 12.4577 1.67594 -0.370394 0.78772 1.658 -0.443826 -21.7561 1.70976 0.150567 -1.74347 1.70974 0.150565 95.7231 -45.705 -92.5704 35.6291 3.71414 7.26469 6.93256 2.92627 -75.5601 10.2799 5.26247 46.513 -107.522 -57.9889 56.7923 -29.9685 -7.70581 18.0694 4.24249 0.218362 -66.3028 -2.98591 -0.34309 45.2349 -13.7101 -2.13711 14.7073 -45.7587 -2.31458 -0.401914 
-75.208 90.8954 -13.4371 66.2435 -60.4472 65.0354 -172.446 18.2373 83.265 -9.94208 3.55469 -1.55982 57.3136 4.27336 2.4719 28.7808 7.25165e-006 1.36913e-005 173.204 19.7302 73.1348 -7.76533 2.74147 0.14302 56.0792 1.27563 1.14318 28.7808 1.65083e-005 2.62488e-005 0.878291 7.23133 -90.2816 12.4135 1.59144 -0.587809 0.743348 1.56402 -0.657302 -21.7996 1.69446 -0.0822074 -1.7869 1.69444 -0.0822322 95.6229 -45.7499 -92.7284 35.272 4.15389 6.9424 6.83218 2.97306 -75.1695 10.1143 5.21371 46.8577 -107.932 -57.6535 56.1185 -31.5457 -6.82153 13.5564 0.451005 -1.85534 -58.7026 6.11485 3.32053 45.408 -13.6991 -2.44308 14.8589 -45.7481 -2.40769 -0.966312 
-75.7962 90.9378 -12.9064 66.9396 -58.9439 65.6685 -172.403 18.1286 83.4086 -9.29643 4.85039 -1.49979 56.9216 4.02993 2.32881 28.7808 7.25165e-006 1.36913e-005 173.218 20.3927 72.8946 -8.39075 0.110109 -0.0108636 52.7151 1.12455 1.21469 28.7808 1.65083e-005 2.62488e-005 0.872298 7.24647 -90.4218 12.3823 1.5007 -0.773161 0.711925 1.46521 -0.838473 -21.8298 1.66415 -0.28629 -1.81714 1.66414 -0.286308 95.2036 -46.2785 -93.3271 34.6277 4.99418 6.72845 6.36616 2.92574 -74.6299 10.4762 5.33741 46.4519 -107.708 -57.1144 56.1883 -34.2204 -8.32842 -17.2048 1.93497 -19.4669 -2.9448 31.6038 3.83174 8.49479 -13.5519 -2.74553 14.6721 -45.9241 -2.69026 -1.08834 
-76.5335 90.888 -12.3356 67.5026 -57.4638 66.1184 -172.339 18.4773 83.559 -9.41199 5.87924 -1.46696 56.9112 3.55085 2.0144 28.7808 7.25165e-006 1.36913e-005 173.212 19.5258 73.1432 -7.75079 4.71304 0.256835 53.668 2.66421 2.19536 28.7808 1.65083e-005 2.62488e-005 0.854479 7.2919 -90.4796 12.2931 1.44717 -0.933148 0.622548 1.40469 -0.995939 -21.9182 1.66156 -0.454994 -1.90557 1.66157 -0.455004 94.879 -47.5634 -93.6653 33.5373 6.20632 5.64089 5.65017 2.82069 -73.8845 11.1914 5.77853 47.186 -107.17 -56.2039 56.5203 -35.9321 -7.51055 -15.8944 1.76956 -17.3016 -3.73754 32.3182 3.88719 8.84017 -12.3631 -3.14504 13.4503 -46.6809 -3.45637 -0.448014 
-77.3194 90.8984 -11.8462 68.0217 -56.0376 66.5029 -172.402 18.6531 83.6856 -9.03095 6.95985 -1.31943 56.4925 3.18585 1.78984 28.7808 7.25165e-006 1.36913e-005 173.377 19.3925 73.3994 -8.14777 7.85264 0.444325 54.8098 2.82738 2.24061 28.7808 1.65083e-005 2.62488e-005 0.841606 7.33461 -90.6325 12.2062 1.33626 -1.12997 0.535446 1.28521 -1.18767 -22.0035 1.61404 -0.676076 -1.99085 1.61405 -0.676089 94.5037 -48.8692 -94.0587 32.438 7.50665 4.54542 3.84538 2.38745 -72.5694 12.423 6.16531 45.5619 -106.906 -55.3045 56.4958 -35.1796 -3.72929 23.1 9.63301 2.32569 -69.4418 -5.96792 -1.90693 49.3798 -11.59 -3.48853 12.74 -46.7862 -4.06559 0.0237227 
-78.106 90.9241 -11.3831 68.4038 -54.7452 66.8878 -172.48 18.8685 83.9258 -8.64646 7.82639 -1.15517 56.0735 2.70505 1.4865 28.7808 7.25165e-006 1.36913e-005 173.594 19.4244 73.786 -8.7024 10.5585 0.610864 55.8094 2.52743 1.97043 28.7808 1.65083e-005 2.62488e-005 0.810683 7.36257 -90.8411 12.1478 1.1551 -1.38818 0.476588 1.09287 -1.43766 -22.0593 1.51888 -0.976854 -2.04669 1.51886 -0.97687 93.8475 -50.3469 -94.8383 30.6843 9.51383 3.25064 4.14037 2.6385 -71.6377 13.9285 6.83837 45.1926 -106.939 -54.3154 56.0335 -37.1372 -2.141 24.2547 8.00121 1.50671 -70.3722 -4.83643 -1.35244 49.9769 -11.0755 -3.78448 11.9432 -46.5439 -4.77307 0.946091 
